<svg id="Layer_1" data-name="Layer 1" xmlns="http://www.w3.org/2000/svg" xmlns:xlink="http://www.w3.org/1999/xlink" viewBox="0 0 397.21 361.91"><defs><style>.cls-1{fill:none;}.cls-1,.cls-3,.cls-4,.cls-5,.cls-7{stroke:#fff;}.cls-1,.cls-3{stroke-width:2.86px;}.cls-2,.cls-3{fill:#00529b;}.cls-4,.cls-5,.cls-7,.cls-9{fill:#fff;}.cls-4{stroke-width:0.03px;}.cls-5{stroke-width:0.03px;}.cls-6{clip-path:url(#clip-path);}.cls-7,.cls-8{stroke-width:0.03px;}.cls-8{fill:#ed1c24;stroke:#ed1c24;}</style><clipPath id="clip-path" transform="translate(-2.21 -18.57)"><path class="cls-1" d="M203.8,134.42a26.06,26.06,0,0,1-6.9,1H48.21l-20.59,110H175c13.42,0,26.35-10.88,28.86-24.32l19.43-97.64A35.51,35.51,0,0,1,203.8,134.42Z"/></clipPath></defs><title>Liberal Logo - White Type </title><path class="cls-2" d="M203.8,134.42a26.06,26.06,0,0,1-6.9,1H48.21l-20.59,110H175c13.42,0,26.35-10.88,28.86-24.32l19.43-97.64A35.51,35.51,0,0,1,203.8,134.42Z" transform="translate(-2.21 -18.57)"/><path class="cls-3" d="M243,20H95.6C82.18,20,69.25,30.89,66.73,44.31L50.69,130H198.1c13.43,0,26.36-10.89,28.88-24.32Z" transform="translate(-2.21 -18.57)"/><polygon class="cls-4" points="62.55 214.5 65.3 205.61 57.49 204.41 64.08 199.7 61.95 192.57 69.6 194.95 74.19 187.75 76.41 194.75 84.56 192.69 80.26 199.96 86.48 204.14 77.55 205.81 76.41 214.36 70.41 209.15 62.55 214.5"/><polygon class="cls-5" points="166.96 139.54 168.18 135.21 164.97 134.58 167.84 132.36 166.98 128.9 170.26 129.99 172.22 126.51 173.16 129.93 176.7 128.99 174.76 132.48 177.4 134.5 173.48 135.31 172.97 139.48 170.41 136.88 166.96 139.54"/><polygon class="cls-5" points="168.54 173.72 171.75 173.72 173.35 171.06 173.88 173.72 177.18 173.72 174.14 175.59 174.69 178.67 172.3 176.68 168.79 178.67 170.64 175.59 168.54 173.72"/><polygon class="cls-5" points="139.2 168.4 140.43 163.82 137.07 163.13 140.13 160.75 139.25 157.1 142.64 158.26 144.72 154.55 145.69 158.2 149.32 157.16 147.3 160.87 150.07 163 145.97 163.91 145.43 168.28 142.8 165.56 139.2 168.4"/><polygon class="cls-5" points="182.38 163.93 183.67 159.26 180.17 158.53 183.28 156.11 182.35 152.4 185.84 153.57 188.05 149.79 188.92 153.51 192.69 152.47 190.64 156.28 193.44 158.38 189.28 159.35 188.72 163.81 186.08 160.98 182.38 163.93"/><polygon class="cls-5" points="154.84 216.67 156.02 212.02 152.62 211.26 155.73 208.84 154.79 205.14 158.25 206.32 160.4 202.53 161.37 206.24 165.11 205.23 163.06 209 165.88 211.13 161.72 212.08 161.17 216.53 158.46 213.75 154.84 216.67"/><g class="cls-6"><polygon class="cls-7" points="43.38 122.38 60.65 135.99 41.13 135.99 38.1 154.34 60.41 154.34 35.63 169.25 34.7 174.92 42.07 174.92 73.76 154.34 70.36 174.92 84.55 174.92 87.96 154.34 111.87 174.92 121.81 174.92 122.66 169.72 102.89 154.34 125.21 154.34 128.24 135.99 105.3 135.99 130.63 121.53 131.57 115.83 125.07 115.83 91.06 135.57 94.32 115.83 80.13 115.83 76.87 135.57 52.2 115.83 44.47 115.83 43.38 122.38"/><polygon class="cls-8" points="40.54 139.56 79.03 139.56 82.95 115.83 91.92 115.83 88 139.56 127.65 139.56 125.71 151.32 86.05 151.32 82.14 174.92 73.18 174.92 77.08 151.32 38.59 151.32 40.54 139.56"/><polygon class="cls-8" points="39.95 174.92 70.83 154.82 66.61 154.82 35.35 174.92 39.95 174.92"/><polygon class="cls-8" points="100.32 154.82 122.31 171.83 121.81 174.92 96.27 154.82 100.32 154.82"/><polygon class="cls-8" points="131.57 115.83 98.17 135.99 93.54 135.99 127.56 115.83 131.57 115.83"/><polygon class="cls-8" points="43.74 120.25 63.2 135.57 68.16 135.57 44.33 116.69 43.74 120.25"/></g><path class="cls-1" d="M203.8,134.42a26.06,26.06,0,0,1-6.9,1H48.21l-20.59,110H175c13.42,0,26.35-10.88,28.86-24.32l19.43-97.64A35.51,35.51,0,0,1,203.8,134.42Z" transform="translate(-2.21 -18.57)"/><path class="cls-3" d="M250.29,135.39c-13.42,0-26.35,10.88-28.86,24.31L209.8,221a28.47,28.47,0,0,1-4.65,10.92,36.52,36.52,0,0,1-12.87,13.4H352.79c13.43,0,26.36-10.88,28.87-24.32l16-85.63Z" transform="translate(-2.21 -18.57)"/><path class="cls-9" d="M8.9,344.27l16.49-85.15H48.86l-12.6,65.05H57.1l-3.89,20.1Z" transform="translate(-2.21 -18.57)"/><path class="cls-9" d="M58.16,344.27l16.49-85.15H98.11L81.63,344.27Z" transform="translate(-2.21 -18.57)"/><path class="cls-9" d="M114.06,325.87l3.18-16.38h1.83c5.42,0,9.44,2.37,8.33,8.13s-6.21,8.25-11.38,8.25Zm-27,18.4h31.53c20.94,0,30.05-13.78,32.09-24.28,2.2-11.41-2.53-18.41-13.87-19.31l0-.23c9.9,0,17.66-7.46,19.52-17.05,3.57-18.41-11.4-24.28-25.2-24.28H103.52Zm33.56-52.06,2.85-14.68h2.29c4.84,0,8,2.14,7,7.22-1.07,5.54-5.93,7.46-10.76,7.46Z" transform="translate(-2.21 -18.57)"/><path class="cls-9" d="M166.81,259.12h43.6l-3.9,20.1H186.38l-2.3,11.86h18.06l-3.89,20.1H180.19l-2.53,13H197.8l-3.89,20.1h-43.6Z" transform="translate(-2.21 -18.57)"/><path class="cls-9" d="M231.67,298.42l4.08-21c6.5-.34,10.49,2.82,9.05,10.28-1.07,5.54-5.44,10.84-11.65,10.84Zm29.43,45.85-10.61-35.45c10-3.62,15.77-12,17.59-21.36,4.35-22.47-9.23-28.34-29.59-28.34H215.81l-16.49,85.15h23.47l4.4-22.69c.81-4.18,1.4-8.37,2.09-12.55l.27-.21,6.13,35.45Z" transform="translate(-2.21 -18.57)"/><path class="cls-9" d="M291.72,315.25l7-19.77c2-5.3,3.58-10.73,5.29-16h.23c-.45,5.31-1,10.74-1.38,16l-1.29,19.77Zm33,29-1.91-85.15H294.19l-37.33,85.15H281l4.07-10.95h15.77l-.4,10.95Z" transform="translate(-2.21 -18.57)"/><path class="cls-9" d="M324.06,344.27l16.48-85.15H364l-12.59,65.05h20.85l-3.91,20.1Z" transform="translate(-2.21 -18.57)"/><path class="cls-9" d="M10.47,356.39l3.58,14.31.07-.06a15.17,15.17,0,0,1,.19-3.59L16,356.39h4.69L16.93,380.1H12.5L9,365.79l-.08.07-.16,2.39-.12,1L6.9,380.1H2.21L6,356.39Z" transform="translate(-2.21 -18.57)"/><path class="cls-9" d="M43.18,356.39l-.7,4.4H37.73L36.91,366h4.18l-.69,4.4H36.22l-.85,5.35h4.81l-.7,4.4H30l3.76-23.71Z" transform="translate(-2.21 -18.57)"/><path class="cls-9" d="M59.19,356.39l.21,11.32c0,1.67-.18,3.37-.29,5h.06c.49-1.66.88-3.36,1.49-5l4.15-11.32h3.72L69,372.74H69c.42-1.66.71-3.3,1.26-5l3.66-11.38h4.9L70.18,380.1H66.12l-.44-12.52c.08-1.44,0-2.89,0-4.33h-.06c-.48,1.44-.87,2.89-1.44,4.33L59.52,380.1H55.43l-1-23.71Z" transform="translate(-2.21 -18.57)"/><path class="cls-9" d="M116.87,361.74a4.5,4.5,0,0,0-3.16-1.52,2.63,2.63,0,0,0-2.72,2.33c-.62,3.9,6.48,4.12,5.47,10.54-.67,4.21-3.59,7.39-8,7.39a6.4,6.4,0,0,1-3.84-1.2l.71-4.46a5.23,5.23,0,0,0,3.36,1.26,3.09,3.09,0,0,0,3.11-2.58c.29-1.82-1-2.52-2.22-3.46-2.42-1.83-3.8-3.59-3.25-7.05.59-3.74,3.27-7,7.29-7a7.12,7.12,0,0,1,4,1.16Z" transform="translate(-2.21 -18.57)"/><path class="cls-9" d="M145.5,368.25c-1.41,8.9-6.09,12.23-10.27,12.23s-7.81-3.33-6.4-12.23S134.92,356,139.1,356,146.91,359.34,145.5,368.25Zm-9.59,7.89c3.12,0,4.29-6,4.59-7.89.33-2.11,1-7.9-2.09-7.9s-4.24,5.79-4.58,7.9C133.53,370.13,132.8,376.14,135.91,376.14Z" transform="translate(-2.21 -18.57)"/><path class="cls-9" d="M164.17,356.39l-2.43,15.35c-.28,1.79-.93,4.49,1.62,4.49,2.29,0,2.57-1.73,2.88-3.49l2.59-16.35h4.68l-2.74,17.3c-.39,2.51-1.36,6.79-8.12,6.79-4.37,0-6.66-2-6-6.48l2.79-17.61Z" transform="translate(-2.21 -18.57)"/><path class="cls-9" d="M197.35,356.39l-.69,4.4h-3.72l-3.05,19.31H185.2l3.06-19.31h-3.68l.7-4.4Z" transform="translate(-2.21 -18.57)"/><path class="cls-9" d="M213.93,356.39l-1.47,9.28h4.75l1.47-9.28h4.69l-3.76,23.71h-4.69l1.59-10h-4.75l-1.59,10h-4.68l3.75-23.71Z" transform="translate(-2.21 -18.57)"/><path class="cls-9" d="M257.27,356.39l.22,11.32c0,1.67-.19,3.37-.29,5h.06c.48-1.66.88-3.36,1.49-5l4.15-11.32h3.71l.43,16.35h.06c.42-1.66.71-3.3,1.26-5L272,356.39h4.91l-8.66,23.71h-4.06l-.44-12.52c.07-1.44,0-2.89,0-4.33h-.07c-.48,1.44-.86,2.89-1.44,4.33L257.6,380.1h-4.09l-1-23.71Z" transform="translate(-2.21 -18.57)"/><path class="cls-9" d="M292.48,372.4h-3.3l2-6.33,1.07-3.58h.06l0,3.58Zm-1.52-16L281.7,380.1h4.65l1.48-4h4.75l.25,4h5l-1.93-23.71Z" transform="translate(-2.21 -18.57)"/><path class="cls-9" d="M317.91,356.39l-3.05,19.31h4.9l-.7,4.4h-9.59l3.76-23.71Z" transform="translate(-2.21 -18.57)"/><path class="cls-9" d="M344.14,356.39l-.69,4.4H338.7l-.82,5.16h4.18l-.7,4.4h-4.18l-.84,5.35h4.81l-.7,4.4H331l3.76-23.71Z" transform="translate(-2.21 -18.57)"/><path class="cls-9" d="M365.69,361.74a4.5,4.5,0,0,0-3.16-1.52,2.63,2.63,0,0,0-2.72,2.33c-.62,3.9,6.49,4.12,5.47,10.54-.67,4.21-3.6,7.39-8,7.39a6.4,6.4,0,0,1-3.84-1.2l.71-4.46a5.23,5.23,0,0,0,3.36,1.26,3.08,3.08,0,0,0,3.11-2.58c.29-1.82-1.05-2.52-2.22-3.46-2.41-1.83-3.8-3.59-3.26-7.05.6-3.74,3.28-7,7.31-7a7.11,7.11,0,0,1,4,1.16Z" transform="translate(-2.21 -18.57)"/><path class="cls-9" d="M8.9,344.27l16.49-85.15H48.86l-12.6,65.05H57.1l-3.89,20.1Z" transform="translate(-2.21 -18.57)"/><path class="cls-9" d="M58.16,344.27l16.49-85.15H98.11L81.63,344.27Z" transform="translate(-2.21 -18.57)"/><path class="cls-9" d="M114.06,325.87l3.18-16.38h1.83c5.42,0,9.44,2.37,8.33,8.13s-6.21,8.25-11.38,8.25Zm-27,18.4h31.53c20.94,0,30.05-13.78,32.09-24.28,2.2-11.41-2.53-18.41-13.87-19.31l0-.23c9.9,0,17.66-7.46,19.52-17.05,3.57-18.41-11.4-24.28-25.2-24.28H103.52Zm33.56-52.06,2.85-14.68h2.29c4.84,0,8,2.14,7,7.22-1.07,5.54-5.93,7.46-10.76,7.46Z" transform="translate(-2.21 -18.57)"/><path class="cls-9" d="M166.81,259.12h43.6l-3.9,20.1H186.38l-2.3,11.86h18.06l-3.89,20.1H180.19l-2.53,13H197.8l-3.89,20.1h-43.6Z" transform="translate(-2.21 -18.57)"/><path class="cls-9" d="M231.67,298.42l4.08-21c6.5-.34,10.49,2.82,9.05,10.28-1.07,5.54-5.44,10.84-11.65,10.84Zm29.43,45.85-10.61-35.45c10-3.62,15.77-12,17.59-21.36,4.35-22.47-9.23-28.34-29.59-28.34H215.81l-16.49,85.15h23.47l4.4-22.69c.81-4.18,1.4-8.37,2.09-12.55l.27-.21,6.13,35.45Z" transform="translate(-2.21 -18.57)"/><path class="cls-9" d="M291.72,315.25l7-19.77c2-5.3,3.58-10.73,5.29-16h.23c-.45,5.31-1,10.74-1.38,16l-1.29,19.77Zm33,29-1.91-85.15H294.19l-37.33,85.15H281l4.07-10.95h15.77l-.4,10.95Z" transform="translate(-2.21 -18.57)"/><path class="cls-9" d="M324.06,344.27l16.48-85.15H364l-12.59,65.05h20.85l-3.91,20.1Z" transform="translate(-2.21 -18.57)"/><path class="cls-9" d="M10.47,356.39l3.58,14.31.07-.06a15.17,15.17,0,0,1,.19-3.59L16,356.39h4.69L16.93,380.1H12.5L9,365.79l-.08.07-.16,2.39-.12,1L6.9,380.1H2.21L6,356.39Z" transform="translate(-2.21 -18.57)"/><path class="cls-9" d="M43.18,356.39l-.7,4.4H37.73L36.91,366h4.18l-.69,4.4H36.22l-.85,5.35h4.81l-.7,4.4H30l3.76-23.71Z" transform="translate(-2.21 -18.57)"/><path class="cls-9" d="M59.19,356.39l.21,11.32c0,1.67-.18,3.37-.29,5h.06c.49-1.66.88-3.36,1.49-5l4.15-11.32h3.72L69,372.74H69c.42-1.66.71-3.3,1.26-5l3.66-11.38h4.9L70.18,380.1H66.12l-.44-12.52c.08-1.44,0-2.89,0-4.33h-.06c-.48,1.44-.87,2.89-1.44,4.33L59.52,380.1H55.43l-1-23.71Z" transform="translate(-2.21 -18.57)"/><path class="cls-9" d="M116.87,361.74a4.5,4.5,0,0,0-3.16-1.52,2.63,2.63,0,0,0-2.72,2.33c-.62,3.9,6.48,4.12,5.47,10.54-.67,4.21-3.59,7.39-8,7.39a6.4,6.4,0,0,1-3.84-1.2l.71-4.46a5.23,5.23,0,0,0,3.36,1.26,3.09,3.09,0,0,0,3.11-2.58c.29-1.82-1-2.52-2.22-3.46-2.42-1.83-3.8-3.59-3.25-7.05.59-3.74,3.27-7,7.29-7a7.12,7.12,0,0,1,4,1.16Z" transform="translate(-2.21 -18.57)"/><path class="cls-9" d="M145.5,368.25c-1.41,8.9-6.09,12.23-10.27,12.23s-7.81-3.33-6.4-12.23S134.92,356,139.1,356,146.91,359.34,145.5,368.25Zm-9.59,7.89c3.12,0,4.29-6,4.59-7.89.33-2.11,1-7.9-2.09-7.9s-4.24,5.79-4.58,7.9C133.53,370.13,132.8,376.14,135.91,376.14Z" transform="translate(-2.21 -18.57)"/><path class="cls-9" d="M164.17,356.39l-2.43,15.35c-.28,1.79-.93,4.49,1.62,4.49,2.29,0,2.57-1.73,2.88-3.49l2.59-16.35h4.68l-2.74,17.3c-.39,2.51-1.36,6.79-8.12,6.79-4.37,0-6.66-2-6-6.48l2.79-17.61Z" transform="translate(-2.21 -18.57)"/><path class="cls-9" d="M197.35,356.39l-.69,4.4h-3.72l-3.05,19.31H185.2l3.06-19.31h-3.68l.7-4.4Z" transform="translate(-2.21 -18.57)"/><path class="cls-9" d="M213.93,356.39l-1.47,9.28h4.75l1.47-9.28h4.69l-3.76,23.71h-4.69l1.59-10h-4.75l-1.59,10h-4.68l3.75-23.71Z" transform="translate(-2.21 -18.57)"/><path class="cls-9" d="M257.27,356.39l.22,11.32c0,1.67-.19,3.37-.29,5h.06c.48-1.66.88-3.36,1.49-5l4.15-11.32h3.71l.43,16.35h.06c.42-1.66.71-3.3,1.26-5L272,356.39h4.91l-8.66,23.71h-4.06l-.44-12.52c.07-1.44,0-2.89,0-4.33h-.07c-.48,1.44-.86,2.89-1.44,4.33L257.6,380.1h-4.09l-1-23.71Z" transform="translate(-2.21 -18.57)"/><path class="cls-9" d="M292.48,372.4h-3.3l2-6.33,1.07-3.58h.06l0,3.58Zm-1.52-16L281.7,380.1h4.65l1.48-4h4.75l.25,4h5l-1.93-23.71Z" transform="translate(-2.21 -18.57)"/><path class="cls-9" d="M317.91,356.39l-3.05,19.31h4.9l-.7,4.4h-9.59l3.76-23.71Z" transform="translate(-2.21 -18.57)"/><path class="cls-9" d="M344.14,356.39l-.69,4.4H338.7l-.82,5.16h4.18l-.7,4.4h-4.18l-.84,5.35h4.81l-.7,4.4H331l3.76-23.71Z" transform="translate(-2.21 -18.57)"/><path class="cls-9" d="M365.69,361.74a4.5,4.5,0,0,0-3.16-1.52,2.63,2.63,0,0,0-2.72,2.33c-.62,3.9,6.49,4.12,5.47,10.54-.67,4.21-3.6,7.39-8,7.39a6.4,6.4,0,0,1-3.84-1.2l.71-4.46a5.23,5.23,0,0,0,3.36,1.26,3.08,3.08,0,0,0,3.11-2.58c.29-1.82-1.05-2.52-2.22-3.46-2.41-1.83-3.8-3.59-3.26-7.05.6-3.74,3.28-7,7.31-7a7.11,7.11,0,0,1,4,1.16Z" transform="translate(-2.21 -18.57)"/></svg>